<?xml version="1.0" encoding="UTF-8"?>
<svg width="18px" height="22px" viewBox="0 0 18 22" version="1.1" xmlns="http://www.w3.org/2000/svg" xmlns:xlink="http://www.w3.org/1999/xlink">
    <!-- Generator: Sketch 64 (93537) - https://sketch.com -->
    <title>Icons - Outline/Popular icons/delete/4px</title>
    <desc>Created with Sketch.</desc>
    <defs>
        <path d="M14.0833333,2.18833333 C15.5671384,2.18833333 16.77,3.39119497 16.77,4.875 L16.77,4.875 L16.77,5.19933333 L21.125,5.2 C21.3802783,5.2 21.5925927,5.38395017 21.6366221,5.62652934 L21.645,5.72 C21.645,6.00718807 21.4121881,6.24 21.125,6.24 L21.125,6.24 L20.561,6.23933333 L20.5616667,21.6666667 C20.5616667,22.7998109 19.6830107,23.727734 18.5698538,23.8062809 L18.4166667,23.8116667 L7.58333333,23.8116667 C6.39868254,23.8116667 5.43833333,22.8513175 5.43833333,21.6666667 L5.43833333,21.6666667 L5.438,6.23933333 L4.875,6.24 C4.61972172,6.24 4.40740729,6.05604983 4.3633779,5.81347066 L4.355,5.72 C4.355,5.43281193 4.58781193,5.2 4.875,5.2 L4.875,5.2 L9.23,5.19933333 L9.23,4.875 C9.23,3.4482644 10.3421132,2.28127675 11.7467576,2.19361902 L11.9166667,2.18833333 Z M19.521,6.23933333 L6.478,6.23933333 L6.47833333,21.6666667 C6.47833333,22.2362563 6.90929408,22.7051897 7.46293141,22.7651827 L7.58333333,22.7716667 L18.4166667,22.7716667 C19.0269413,22.7716667 19.5216667,22.2769413 19.5216667,21.6666667 L19.5216667,21.6666667 L19.521,6.23933333 Z M16.12,9.23 C16.4071881,9.23 16.64,9.46281193 16.64,9.75 L16.64,9.75 L16.64,19.5 C16.64,19.7871881 16.4071881,20.02 16.12,20.02 C15.8328119,20.02 15.6,19.7871881 15.6,19.5 L15.6,19.5 L15.6,9.75 C15.6,9.46281193 15.8328119,9.23 16.12,9.23 Z M13,9.23 C13.2871881,9.23 13.52,9.46281193 13.52,9.75 L13.52,9.75 L13.52,19.5 C13.52,19.7871881 13.2871881,20.02 13,20.02 C12.7128119,20.02 12.48,19.7871881 12.48,19.5 L12.48,19.5 L12.48,9.75 C12.48,9.46281193 12.7128119,9.23 13,9.23 Z M9.62,9.23 C9.90718807,9.23 10.14,9.46281193 10.14,9.75 L10.14,9.75 L10.14,19.5 C10.14,19.7871881 9.90718807,20.02 9.62,20.02 C9.33281193,20.02 9.1,19.7871881 9.1,19.5 L9.1,19.5 L9.1,9.75 C9.1,9.46281193 9.33281193,9.23 9.62,9.23 Z M14.0833333,3.22833333 L11.9166667,3.22833333 C11.0072378,3.22833333 10.27,3.96557111 10.27,4.875 L10.27,4.875 L10.27,5.19933333 L15.73,5.19933333 L15.73,4.875 C15.73,4.01343579 15.068324,3.30641429 14.225414,3.23437758 L14.0833333,3.22833333 Z" id="path-1"></path>
    </defs>
    <g id="Page-1" stroke="none" stroke-width="1" fill="none" fill-rule="evenodd">
        <g id="Icons---Outline/Popular-icons/delete/4px" transform="translate(-4.000000, -2.000000)">
            <mask id="mask-2" fill="white">
                <use xlink:href="#path-1"></use>
            </mask>
            <use id="Combined-Shape" fill="#333333" fill-rule="nonzero" xlink:href="#path-1"></use>
            <g id="00-Brand-/-Colours-/-Vod-Digital-/-Digital-red" mask="url(#mask-2)" fill="#FF0000" fill-rule="evenodd">
                <g id="00-Brand-/-Colours-/-Vod-Digital-/-Error-#FF0000">
                    <rect id="colour" x="0" y="0" width="26" height="26"></rect>
                </g>
            </g>
        </g>
    </g>
</svg>