<?xml version="1.0" encoding="utf-8"?>
<svg width="21px" height="17px" viewBox="0 0 21 17" version="1.1" xmlns="http://www.w3.org/2000/svg" xmlns:xlink="http://www.w3.org/1999/xlink">
  <!-- Generator: Sketch 60 (88103) - https://sketch.com -->
  <title>Shape + Shape</title>
  <desc>Created with Sketch.</desc>
  <defs>
    <linearGradient x1="70.7519601%" y1="81.9569836%" x2="32.4763686%" y2="18.0430164%" id="linearGradient-1">
      <stop stop-color="#009BE0" offset="0%"></stop>
      <stop stop-color="#006BA8" offset="100%"></stop>
    </linearGradient>
  </defs>
  <g id="Page-1" stroke="none" stroke-width="1" fill="none" fill-rule="evenodd">
    <g id="CC-payment--Saved-Cards" transform="translate(-143.000000, -463.000000)">
      <g id="Shape-+-Shape" transform="translate(143.000000, 463.000000)">
        <path d="M11.9354411,16.2876838 C16.3469011,16.3089805 20.3734192,12.6571786 20.3734192,8.21461603 C20.3734192,3.35642672 16.3469011,-0.0016152587 11.9354411,5.82885227e-07 L8.13886342,5.82885227e-07 C3.67456201,-0.0016152587 0,3.35742854 0,8.21461603 C0,12.6581481 3.67456201,16.3090129 8.13886342,16.2876838 L11.9354411,16.2876838 L11.9354411,16.2876838 Z" id="Shape" fill="url(#linearGradient-1)"></path>
        <path d="M8.15455573,0.678653465 C4.07519623,0.679946139 0.769563579,4.01665901 0.768602826,8.13482519 C0.769563579,12.2522804 4.07516421,15.5886701 8.15455573,15.5899628 C12.234876,15.5886701 15.5411812,12.2522804 15.5417576,8.13482519 C15.5411491,4.01665901 12.234876,0.679946139 8.15455573,0.678653465 L8.15455573,0.678653465 Z M3.47280377,8.13482519 L3.47280377,8.13482519 C3.47664678,6.12245608 4.72210361,4.40643232 6.47836107,3.72451485 L6.47836107,12.5441014 C4.72210361,11.8625717 3.47661476,10.1474851 3.47280377,8.13482519 L3.47280377,8.13482519 Z M9.83010989,12.5460404 L9.83010989,12.5460404 L9.83010989,3.724224 C11.5870078,4.40449331 12.8343862,6.12148657 12.8375887,8.13482519 C12.8343862,10.1487778 11.5870078,11.8644784 9.83010989,12.5460404 L9.83010989,12.5460404 Z" id="Shape" fill="#F4F6F7"></path>
      </g>
    </g>
  </g>
</svg>