<?xml version="1.0" encoding="UTF-8"?>
<svg width="37px" height="12px" viewBox="0 0 37 12" version="1.1" xmlns="http://www.w3.org/2000/svg" xmlns:xlink="http://www.w3.org/1999/xlink">
	<title>visa</title>
	<desc>Created with Sketch.</desc>
	<g id="Page-1" stroke="none" stroke-width="1" fill="none" fill-rule="evenodd">
		<g id="Display-payment-types" transform="translate(-725.000000, -328.000000)">
			<g id="visa" transform="translate(725.000000, 328.000000)">
				<g transform="translate(0.447908, 0.430034)">
					<polyline id="Fill-1" fill="#304D8F" points="13.3539091 10.668434 15.1619047 0.270086938 17.9868979 0.270086938 16.2354021 10.668434 13.3539091 10.668434"></polyline>
					<polyline id="Fill-2" fill="#333473" points="13.3539091 10.668434 15.6704035 0.270086938 17.9868979 0.270086938 16.2354021 10.668434 13.3539091 10.668434"></polyline>
					<path d="M26.7078181,0.460569304 C26.1289172,0.230284652 25.2026757,0 24.0448738,0 C21.150369,0 19.0663256,1.43927908 19.0663256,3.51184094 C19.0663256,5.06626235 20.5135779,5.87225863 21.6713799,6.3903991 C22.8291818,6.90853956 23.1765223,7.25396654 23.1765223,7.71453585 C23.1765223,8.4053898 22.2502808,8.75081678 21.4398195,8.75081678 C20.2820176,8.75081678 19.6452265,8.57810329 18.6610949,8.17510515 L18.2558642,8.00239166 L17.8506336,10.3628093 C18.5453147,10.6506652 19.8188968,10.938521 21.150369,10.938521 C24.218544,10.938521 26.2446974,9.4992419 26.2446974,7.3115377 C26.2446974,6.10254328 25.4921261,5.18140467 23.7554233,4.43297955 C22.7134016,3.91483909 22.0766105,3.62698327 22.0766105,3.1088428 C22.0766105,2.6482735 22.5976214,2.18770419 23.7554233,2.18770419 C24.7395549,2.18770419 25.434236,2.36041768 25.9552469,2.59070234 L26.2446974,2.70584466 L26.7078181,0.460569304" id="Fill-3" fill="#304D8F"></path>
					<path d="M26.7078181,0.460569304 C26.1289172,0.230284652 25.2026757,0 24.0448738,0 C21.150369,0 19.5873364,1.43927908 19.5873364,3.51184094 C19.5873364,5.06626235 20.5135779,5.87225863 21.6713799,6.3903991 C22.8291818,6.90853956 23.1765223,7.25396654 23.1765223,7.71453585 C23.1765223,8.4053898 22.2502808,8.75081678 21.4398195,8.75081678 C20.2820176,8.75081678 19.6452265,8.57810329 18.6610949,8.17510515 L18.2558642,8.00239166 L17.8506336,10.3628093 C18.5453147,10.6506652 19.8188968,10.938521 21.150369,10.938521 C24.218544,10.938521 26.2446974,9.4992419 26.2446974,7.3115377 C26.2446974,6.10254328 25.4921261,5.18140467 23.7554233,4.43297955 C22.7134016,3.91483909 22.0766105,3.62698327 22.0766105,3.1088428 C22.0766105,2.6482735 22.5976214,2.18770419 23.7554233,2.18770419 C24.7395549,2.18770419 25.434236,2.36041768 25.9552469,2.59070234 L26.2446974,2.70584466 L26.7078181,0.460569304" id="Fill-4" fill="#333473"></path>
					<path d="M30.3869564,7.20231834 C30.5599073,6.68240098 31.5399626,4.1405828 31.5399626,4.1405828 C31.5399626,4.1405828 31.7705639,3.50512826 31.9435148,3.10074809 L32.1164658,4.08281421 C32.1164658,4.08281421 32.6929689,6.68240098 32.8082695,7.26008693 L30.3869564,7.26008693 L30.3869564,7.20231834 Z M31.7129136,0.270086938 C31.0211098,0.270086938 30.502257,0.327855533 30.2140054,1.02107867 L25.8902319,10.668434 L29.0033488,10.668434 L29.579852,8.93537619 L33.2694721,8.93537619 L33.6153739,10.668434 L36.382589,10.668434 L33.9612758,0.270086938 L31.7129136,0.270086938 Z" id="Fill-5" fill="#304D8F"></path>
					<path d="M30.3869564,7.20231834 C30.6175576,6.62463239 31.5399626,4.1405828 31.5399626,4.1405828 C31.5399626,4.1405828 31.7705639,3.50512826 31.9435148,3.10074809 L32.1164658,4.08281421 C32.1164658,4.08281421 32.6929689,6.68240098 32.8082695,7.26008693 L30.3869564,7.26008693 L30.3869564,7.20231834 Z M32.4047173,0.270086938 C31.7129136,0.270086938 31.1940608,0.327855533 30.9058092,1.02107867 L25.8902319,10.668434 L29.0033488,10.668434 L29.579852,8.93537619 L33.2694721,8.93537619 L33.6153739,10.668434 L36.382589,10.668434 L33.9612758,0.270086938 L32.4047173,0.270086938 Z" id="Fill-6" fill="#333473"></path>
					<path d="M7.85791248,7.62620478 L7.57024324,6.12422131 C7.0524386,4.39116346 5.38395699,2.48479983 3.54287384,1.56050231 L6.13189702,10.8034775 L9.23872485,10.8034775 L13.8989666,0.405130406 L10.7921388,0.405130406 L7.85791248,7.62620478" id="Fill-7" fill="#304D8F"></path>
					<path d="M7.85791248,7.62620478 L7.57024324,6.12422131 C7.0524386,4.39116346 5.38395699,2.48479983 3.54287384,1.56050231 L6.13189702,10.8034775 L9.23872485,10.8034775 L13.8989666,0.405130406 L11.3674772,0.405130406 L7.85791248,7.62620478" id="Fill-8" fill="#333473"></path>
					<path d="M0,0.270086938 L0.512516766,0.386224321 C4.15708044,1.25725469 6.66271796,3.46386498 7.63080518,6.0769561 L6.60577165,1.14111731 C6.43493273,0.444293012 5.92241596,0.270086938 5.29600658,0.270086938 L0,0.270086938" id="Fill-9" fill="#EFA639"></path>
					<path d="M0,0.270086938 C3.64456367,1.12945447 6.66271796,3.36381004 7.63080518,5.94191263 L6.66271796,1.87423966 C6.49187904,1.18674564 5.92241596,0.785707455 5.29600658,0.785707455 L0,0.270086938" id="Fill-10" fill="#E9833A"></path>
					<path d="M0,0.270086938 C3.64456367,1.12945447 6.66271796,3.36381004 7.63080518,5.94191263 L6.9474495,3.70755705 C6.77661057,3.02006303 6.54882535,2.33256901 5.75157704,2.04611316 L0,0.270086938" id="Fill-11" fill="#E46A34"></path>
					<path d="M10.9011503,7.30922775 L8.95828397,5.32915289 L8.04399394,7.54217773 L7.81542144,6.08624034 C7.3011333,4.33911546 5.64398264,2.41727809 3.81540259,1.48547816 L6.38684328,10.8034775 L9.4725721,10.8034775 L10.9011503,7.30922775" id="Fill-12" fill="#1D1B35"></path>
					<polyline id="Fill-13" fill="#1D1B35" points="16.3517254 10.668434 13.8241548 8.10260813 13.3539091 10.668434 16.3517254 10.668434"></polyline>
					<path d="M22.8662109,7.02226038 C23.0968121,7.25606698 23.2121127,7.43142193 23.1544624,7.66522854 C23.1544624,8.36664834 22.2320574,8.71735825 21.424953,8.71735825 C20.2719467,8.71735825 19.6377933,8.5420033 18.657738,8.13284174 L18.2541858,7.95748679 L17.8506336,10.3540045 C18.5424373,10.6462627 19.8107442,10.938521 21.1367014,10.938521 C22.9815115,10.938521 24.4804197,10.4124561 25.3451744,9.47722971 L22.8662109,7.02226038" id="Fill-14" fill="#1D1B35"></path>
					<path d="M26.299025,10.5333906 L29.0071822,10.5333906 L29.5833859,8.83246138 L33.2710893,8.83246138 L33.6168115,10.5333906 L36.382589,10.5333906 L35.4030428,6.39446288 L31.9458208,3.10599978 L32.1186819,4.01316202 C32.1186819,4.01316202 32.6948856,6.5645558 32.8101263,7.13153219 L30.390071,7.13153219 C30.6205524,6.5645558 31.5424783,4.1265573 31.5424783,4.1265573 C31.5424783,4.1265573 31.7729598,3.50288326 31.9458208,3.10599978" id="Fill-15" fill="#1D1B35"></path>
				</g>
			</g>
		</g>
	</g>
</svg>