<?xml version="1.0" encoding="UTF-8"?>
<svg width="18px" height="18px" viewBox="0 0 18 18" version="1.1" xmlns="http://www.w3.org/2000/svg" xmlns:xlink="http://www.w3.org/1999/xlink">
    <!-- Generator: Sketch 64 (93537) - https://sketch.com -->
    <title>01 Atoms / Icons / admin / #E60000 Copy 3</title>
    <desc>Created with Sketch.</desc>
    <g id="Page-1" stroke="none" stroke-width="1" fill="none" fill-rule="evenodd">
        <g id="01-Atoms-/-Icons-/-virus_protection-/-#E60000" transform="translate(-1.000000, -1.000000)">
            <g id="virus_protection">
                <polygon id="bg" fill-opacity="0" fill="#D8D8D8" points="0 0 20 0 20 20 0 20"></polygon>
                <line x1="17.8479167" y1="3.6375" x2="4.80520833" y2="13.61875" id="Shape" stroke="#E60000" stroke-width="0.833333333" stroke-linecap="round" stroke-linejoin="round"></line>
                <path d="M10.3645833,2.16562396 L10.3645833,2.16562394 C10.1415468,2.02611456 9.85845309,2.02611456 9.63541663,2.16562398 C4.90104163,5.12708231 2.0708333,2.48333231 2.0708333,3.96458231 C2.0708333,14.0135406 8.54166663,17.3427073 9.79166663,17.8958323 L9.79166663,17.8958323 C9.92163121,17.9536797 10.0700354,17.9536797 10.2,17.8958323 C11.45,17.3427073 17.9250046,14.0135406 17.9250046,3.96458231 C17.9291666,2.47812398 15.0989583,5.12708231 10.3645833,2.16562398 L10.3645833,2.16562396 Z" id="Shape" stroke="#E60000" stroke-width="0.833333333" stroke-linecap="round" stroke-linejoin="round"></path>
            </g>
        </g>
    </g>
</svg>