<?xml version="1.0" encoding="UTF-8"?>
<svg width="16px" height="18px" viewBox="0 0 16 18" version="1.1" xmlns="http://www.w3.org/2000/svg" xmlns:xlink="http://www.w3.org/1999/xlink">
    <!-- Generator: Sketch 64 (93537) - https://sketch.com -->
    <title>01 Atoms / Icons / admin / #E60000 Copy 2</title>
    <desc>Created with Sketch.</desc>
    <g id="Page-1" stroke="none" stroke-width="1" fill="none" fill-rule="evenodd">
        <g id="01-Atoms-/-Icons-/-calendar-/-#E60000" transform="translate(-2.000000, -1.000000)">
            <g id="calendar">
                <polygon id="bg" fill-opacity="0" fill="#D8D8D8" points="0 0 20 0 20 20 0 20"></polygon>
                <line x1="7.08333333" y1="2.08333333" x2="7.08333333" y2="4.58333333" id="path_1" stroke="#E60000" stroke-width="0.833333333" stroke-linecap="round"></line>
                <line x1="12.9166667" y1="2.08333333" x2="12.9166667" y2="4.58333333" id="path_1" stroke="#E60000" stroke-width="0.833333333" stroke-linecap="round"></line>
                <path d="M4.16666667,17.9166667 C3.47631667,17.9166667 2.91666667,17.3570167 2.91666667,16.6666667 L2.91666667,5 C2.91666667,4.30965 3.47631667,3.75 4.16666667,3.75 L15.8333333,3.75 C16.5236833,3.75 17.0833333,4.30965 17.0833333,5 L17.0833333,16.6666667 C17.0833333,17.3570167 16.5236833,17.9166667 15.8333333,17.9166667 L4.16666667,17.9166667 Z" id="Shape" stroke="#E60000" stroke-width="0.833333333" stroke-linecap="round"></path>
                <line x1="17.0833333" y1="7.08333333" x2="2.91666667" y2="7.08333333" id="Shape" stroke="#E60000" stroke-width="0.833333333"></line>
                <line x1="7.08333333" y1="12.0833333" x2="4.58333333" y2="12.0833333" id="path_2" stroke="#E60000" stroke-width="0.833333333" stroke-linecap="round"></line>
                <line x1="11.25" y1="12.0833333" x2="8.75" y2="12.0833333" id="path_2" stroke="#E60000" stroke-width="0.833333333" stroke-linecap="round"></line>
                <line x1="15.4166667" y1="12.0833333" x2="12.9166667" y2="12.0833333" id="path_2" stroke="#E60000" stroke-width="0.833333333" stroke-linecap="round"></line>
                <line x1="7.08333333" y1="9.58333333" x2="4.58333333" y2="9.58333333" id="path_2" stroke="#E60000" stroke-width="0.833333333" stroke-linecap="round"></line>
                <line x1="11.25" y1="9.58333333" x2="8.75" y2="9.58333333" id="path_2" stroke="#E60000" stroke-width="0.833333333" stroke-linecap="round"></line>
                <line x1="15.4166667" y1="9.58333333" x2="12.9166667" y2="9.58333333" id="path_2" stroke="#E60000" stroke-width="0.833333333" stroke-linecap="round"></line>
                <line x1="7.08333333" y1="14.5833333" x2="4.58333333" y2="14.5833333" id="path_2" stroke="#E60000" stroke-width="0.833333333" stroke-linecap="round"></line>
                <line x1="11.25" y1="14.5833333" x2="8.75" y2="14.5833333" id="path_2" stroke="#E60000" stroke-width="0.833333333" stroke-linecap="round"></line>
                <line x1="15.4166667" y1="14.5833333" x2="12.9166667" y2="14.5833333" id="path_2" stroke="#E60000" stroke-width="0.833333333" stroke-linecap="round"></line>
            </g>
        </g>
    </g>
</svg>