<?xml version="1.0" encoding="UTF-8"?>
<svg version="1.1" viewBox="0 0 28 22" xmlns="http://www.w3.org/2000/svg" xmlns:xlink="http://www.w3.org/1999/xlink">
<title>Bitmap</title>
<desc>Created with Sketch.</desc>
<defs>
<polygon id="c" points="0.053693 0.083728 0.52281 0.083728 0.52281 0.53872 0.053693 0.53872"/>
<polygon id="b" points="0 0.049239 13.642 0.049239 13.642 16.85 0 16.85"/>
<polygon id="a" points="0.034903 0.049239 13.677 0.049239 13.677 16.85 0.034903 16.85"/>
</defs>
<g fill="none" fill-rule="evenodd">
<g transform="translate(-773 -323)">
<g transform="translate(772 321)">
<g transform="translate(.99957 2)">
<path d="m4.6799 19.116c-0.078293-0.07833-0.17117-0.13921-0.27872-0.18263-0.10756-0.043421-0.22527-0.065185-0.35324-0.065185-0.06771 0-0.13801 0.0059259-0.21101 0.017454-0.072894 0.011744-0.14438 0.032216-0.21436 0.061737-0.069978 0.029414-0.1365 0.070141-0.19978 0.12207-0.063175 0.05204-0.11803 0.11755-0.16469 0.19663-0.07527-0.12412-0.17721-0.22141-0.30583-0.29199-0.12862-0.070572-0.2757-0.10591-0.44125-0.10591-0.055615 0-0.11317 0.0050639-0.17268 0.015192-0.059395 0.010128-0.11847 0.027582-0.17711 0.052364-0.058747 0.024889-0.11479 0.058505-0.16814 0.10117-0.053456 0.042667-0.10194 0.096539-0.14557 0.16172v-0.27227h-0.46944v2.229h0.47386v-1.2355c0-0.094599 0.015119-0.17875 0.045248-0.25244 0.030021-0.073589 0.070302-0.13533 0.12073-0.185 0.050324-0.04967 0.10939-0.087165 0.17711-0.11281 0.06771-0.025643 0.13996-0.038357 0.21674-0.038357 0.15939 0 0.28326 0.050424 0.37127 0.15116 0.088013 0.10085 0.13196 0.24512 0.13196 0.43281v1.2401h0.47397v-1.2355c0-0.094599 0.015011-0.17875 0.04514-0.25244 0.030129-0.073589 0.070302-0.13533 0.12073-0.185 0.050432-0.04967 0.1095-0.087165 0.17721-0.11281 0.06771-0.025643 0.13996-0.038357 0.21663-0.038357 0.1595 0 0.28326 0.050424 0.37127 0.15116 0.088013 0.10085 0.13196 0.24512 0.13196 0.43281v1.2401h0.47397v-1.4007c0-0.13026-0.021382-0.24975-0.064255-0.35825-0.042872-0.10861-0.10346-0.20202-0.18175-0.28046" fill="#1D1D1B"/>
<path d="m7.1607 20.325c-0.032613 0.08695-0.078509 0.16215-0.13758 0.22572-0.059071 0.063677-0.12981 0.11356-0.2122 0.15009-0.082397 0.036418-0.17419 0.054626-0.27516 0.054626-0.10572 0-0.20022-0.018963-0.28337-0.056889-0.083153-0.038034-0.15356-0.089212-0.21101-0.15364-0.057451-0.064323-0.10184-0.13996-0.13294-0.2268-0.031101-0.086842-0.046652-0.17918-0.046652-0.2769s0.015551-0.18995 0.046652-0.2769c0.031101-0.086842 0.075486-0.16248 0.13294-0.2268 0.057451-0.064323 0.12786-0.11561 0.21101-0.15354 0.083153-0.038034 0.17765-0.057104 0.28337-0.057104 0.10097 0 0.19276 0.018316 0.27516 0.054734 0.082397 0.036525 0.15313 0.086518 0.2122 0.15009 0.059071 0.063677 0.10497 0.13888 0.13758 0.22562 0.032721 0.08695 0.049028 0.18155 0.049028 0.28391s-0.016307 0.19696-0.049028 0.2838zm0.018682-1.1284c-0.077753-0.099232-0.17408-0.17875-0.2892-0.23844-0.11501-0.05969-0.25259-0.089643-0.41274-0.089643-0.15702 0-0.30313 0.029199-0.43834 0.08738-0.13531 0.058074-0.25345 0.13921-0.35453 0.24307-0.10097 0.10397-0.18034 0.22766-0.2379 0.37107-0.057451 0.14352-0.086177 0.3005-0.086177 0.47116s0.028726 0.32765 0.086177 0.47106c0.057559 0.14352 0.13693 0.26731 0.2379 0.37118 0.10108 0.10387 0.21922 0.18489 0.35453 0.24307 0.1352 0.058182 0.28132 0.087273 0.43834 0.087273 0.16015 0 0.29773-0.029414 0.41274-0.08835 0.11512-0.058936 0.21145-0.13813 0.2892-0.23725v0.26753h0.48736v-2.229h-0.48736v0.2699z" fill="#1D1D1B"/>
<path d="m9.9071 20.038c-0.13682-0.10624-0.32732-0.17724-0.57138-0.21301l-0.23078-0.034801c-0.051404-0.0077576-0.099568-0.016593-0.14471-0.026828-0.045032-0.01002-0.083909-0.023596-0.11652-0.040727-0.032613-0.017024-0.058747-0.03868-0.078077-0.065078-0.019438-0.02629-0.029158-0.058936-0.029158-0.097616 0-0.079192 0.036825-0.14319 0.1108-0.19211 0.073758-0.048808 0.17754-0.073158 0.31123-0.073158 0.069978 0 0.13877 0.0061414 0.20637 0.018532 0.067602 0.012498 0.13175 0.027906 0.19244 0.046545 0.060583 0.01864 0.11577 0.039111 0.16555 0.06163 0.049676 0.022519 0.091792 0.04396 0.12592 0.064l0.20983-0.37915c-0.11652-0.074559-0.25259-0.13231-0.40799-0.17347-0.15551-0.04105-0.32106-0.06163-0.49676-0.06163-0.14309 0-0.27127 0.0167-0.38477 0.050101-0.1135 0.033293-0.21026 0.080593-0.29039 0.1419-0.080021 0.061306-0.14147 0.13608-0.18423 0.22443-0.042764 0.088458-0.064039 0.18769-0.064039 0.29791 0 0.17993 0.064039 0.32528 0.19233 0.43626 0.12829 0.11087 0.31674 0.18338 0.56555 0.21754l0.23315 0.030168c0.13369 0.01864 0.23164 0.048593 0.29384 0.089535 0.062203 0.041158 0.093304 0.093522 0.093304 0.15709 0 0.083825-0.042764 0.15009-0.12829 0.1989s-0.2122 0.073374-0.38013 0.073374c-0.091684 0-0.17365-0.0062492-0.246-0.01864-0.072246-0.012391-0.13834-0.029091-0.19816-0.049993-0.059935-0.020902-0.1135-0.045037-0.16091-0.072189-0.047516-0.027152-0.09136-0.056135-0.13175-0.087165l-0.22624 0.36514c0.080777 0.060552 0.16555 0.10947 0.25421 0.14675 0.088553 0.037064 0.17559 0.066155 0.26112 0.087165s0.16631 0.034801 0.24255 0.041912c0.076134 0.0068956 0.14298 0.010451 0.20054 0.010451 0.16015 0 0.30356-0.017778 0.43024-0.053549 0.12678-0.035663 0.23315-0.085657 0.31955-0.15009 0.086285-0.064323 0.15227-0.14114 0.19816-0.23036 0.045788-0.089104 0.06879-0.18726 0.06879-0.29425 0-0.19081-0.068358-0.33939-0.20518-0.44552" fill="#1D1D1B"/>
<path d="m13.107 19.85c0.012419-0.0807 0.034233-0.15483 0.065334-0.22228 0.031101-0.06734 0.071166-0.12563 0.12009-0.17444 0.049028-0.048916 0.10724-0.086411 0.17484-0.11281 0.06771-0.026397 0.14503-0.03965 0.23207-0.03965 0.1554 0 0.28218 0.048162 0.38013 0.14427 0.097948 0.096216 0.16004 0.23122 0.1865 0.4049h-1.159zm1.3631-0.65735c-0.092548-0.10311-0.20367-0.18295-0.33348-0.23962s-0.27246-0.084902-0.42786-0.084902c-0.1649 0-0.31523 0.028229-0.45119 0.084902-0.13618 0.056673-0.25313 0.13651-0.35108 0.23962-0.097948 0.10311-0.17408 0.22691-0.22851 0.37118-0.054428 0.14427-0.081641 0.30319-0.081641 0.47698 0 0.1767 0.02797 0.33724 0.084017 0.48151 0.055939 0.14427 0.13434 0.26764 0.23542 0.36999 0.10119 0.10236 0.2216 0.18144 0.36155 0.23725 0.13996 0.055919 0.29384 0.083717 0.46177 0.083717 0.16933 0 0.33067-0.023165 0.4838-0.06971 0.15302-0.046546 0.29816-0.128 0.43488-0.24436l-0.24244-0.34661c-0.093304 0.074451-0.19633 0.13231-0.30907 0.17336-0.11274 0.041158-0.22505 0.06163-0.33693 0.06163-0.079373 0-0.15551-0.010774-0.22851-0.032646-0.07311-0.021657-0.13909-0.055273-0.19827-0.10117-0.059071-0.045684-0.1095-0.1043-0.15162-0.17562-0.0419-0.071327-0.070734-0.15741-0.086177-0.25826h1.651c0.0031318-0.027906 0.0053996-0.057428 0.0070195-0.088458 0.0015118-0.03103 0.0023758-0.061953 0.0023758-0.092983 0-0.17368-0.026134-0.33239-0.078186-0.4758-0.05216-0.14352-0.1243-0.26688-0.21685-0.36999z" fill="#1D1D1B"/>
<path d="m20.927 20.325c-0.032721 0.08695-0.078617 0.16215-0.13758 0.22572-0.059179 0.063677-0.12991 0.11356-0.21231 0.15009-0.082397 0.036418-0.17408 0.054626-0.27516 0.054626-0.10572 0-0.20022-0.018963-0.28326-0.056889-0.083261-0.038034-0.15356-0.089212-0.21112-0.15364-0.057451-0.064323-0.10184-0.13996-0.13294-0.2268-0.031101-0.086842-0.046544-0.17918-0.046544-0.2769s0.015443-0.18995 0.046544-0.2769c0.031101-0.086842 0.075486-0.16248 0.13294-0.2268 0.057559-0.064323 0.12786-0.11561 0.21112-0.15354 0.083045-0.038034 0.17754-0.057104 0.28326-0.057104 0.10108 0 0.19276 0.018316 0.27516 0.054734 0.082397 0.036525 0.15313 0.086518 0.21231 0.15009 0.058963 0.063677 0.10486 0.13888 0.13758 0.22562 0.032613 0.08695 0.04892 0.18155 0.04892 0.28391s-0.016307 0.19696-0.04892 0.2838zm0.018574-1.1284c-0.077754-0.099232-0.17408-0.17875-0.2892-0.23844-0.1149-0.05969-0.25259-0.089643-0.41263-0.089643-0.15713 0-0.30324 0.029199-0.43844 0.08738-0.13531 0.058074-0.25335 0.13921-0.35453 0.24307-0.10097 0.10397-0.18034 0.22766-0.2378 0.37107-0.057559 0.14352-0.086285 0.3005-0.086285 0.47116s0.028726 0.32765 0.086285 0.47106c0.057451 0.14352 0.13682 0.26731 0.2378 0.37118 0.10119 0.10387 0.21922 0.18489 0.35453 0.24307 0.1352 0.058182 0.28132 0.087273 0.43844 0.087273 0.16004 0 0.29773-0.029414 0.41263-0.08835 0.11512-0.058936 0.21145-0.13813 0.2892-0.23725v0.26753h0.48747v-2.229h-0.48747v0.2699z" fill="#1D1D1B"/>
<path d="m11.997 20.711c-0.078509 0.029414-0.15583 0.044175-0.23207 0.044175-0.049784 0-0.096004-0.0076498-0.13877-0.023273-0.042764-0.015407-0.080021-0.039865-0.11188-0.073158-0.031857-0.033401-0.057235-0.07639-0.07581-0.12919-0.018682-0.052795-0.02797-0.11636-0.02797-0.19081v-0.97024h0.78272v-0.44197h-0.78272v-0.67469h-0.48974v0.67469h-0.44535v0.44197h0.44535v0.97961c0 0.29619 0.070302 0.51448 0.21101 0.65487 0.14071 0.1405 0.3378 0.21053 0.59114 0.21053 0.14147 0 0.26857-0.021657 0.38132-0.065078 0.074514-0.02866 0.14363-0.061522 0.20831-0.097724l-0.16663-0.40716c-0.047192 0.025104-0.096652 0.047731-0.14892 0.067448" fill="#1D1D1B"/>
<path d="m16.397 18.869c-0.13682 0-0.26037 0.024781-0.37084 0.074451-0.11037 0.04967-0.20281 0.16916-0.27743 0.27626v-0.29253h-0.44255v2.229h0.44719v-1.2262c0-0.094492 0.013283-0.17907 0.039633-0.25363 0.026458-0.074343 0.062959-0.13716 0.10972-0.18844 0.046544-0.051071 0.10248-0.089966 0.16793-0.11626 0.065226-0.026397 0.13661-0.039542 0.21447-0.039542 0.059071 0 0.12279 0.0068956 0.19114 0.020902 0.034989 0.0071111 0.067494 0.015946 0.098056 0.026182l0.14406-0.46524c-0.039093-0.012283-0.078725-0.022842-0.11965-0.029737-0.059935-0.010128-0.12711-0.015192-0.20173-0.015192" fill="#1D1D1B"/>
<path d="m23.172 18.869c-0.13682 0-0.26037 0.024781-0.37084 0.074451-0.11037 0.04967-0.20281 0.16916-0.27743 0.27626v-0.29253h-0.44255v2.229h0.44719v-1.2262c0-0.094492 0.013175-0.17907 0.039633-0.25363 0.02635-0.074343 0.062959-0.13716 0.10961-0.18844 0.046652-0.051071 0.10259-0.089966 0.16793-0.11626 0.065226-0.026397 0.13672-0.039542 0.21447-0.039542 0.059179 0 0.12289 0.0068956 0.19125 0.020902 0.034881 0.0071111 0.067386 0.015946 0.097948 0.026182l0.14417-0.46524c-0.039201-0.012283-0.078833-0.022842-0.11965-0.029737-0.059935-0.010128-0.12721-0.015192-0.20173-0.015192" fill="#1D1D1B"/>
<path d="m25.43 20.325c-0.032721 0.08695-0.078617 0.16215-0.13758 0.22572-0.059071 0.063677-0.12991 0.11356-0.2122 0.15009-0.082505 0.036418-0.17419 0.054626-0.27516 0.054626-0.10583 0-0.20022-0.018963-0.28337-0.056889-0.083261-0.038034-0.15356-0.089212-0.21112-0.15364-0.057451-0.064323-0.10184-0.13996-0.13283-0.2268-0.031209-0.086842-0.046652-0.17918-0.046652-0.2769s0.015443-0.18995 0.046652-0.2769c0.030993-0.086842 0.075378-0.16248 0.13283-0.2268 0.057559-0.064323 0.12786-0.11561 0.21112-0.15354 0.083153-0.038034 0.17754-0.057104 0.28337-0.057104 0.10097 0 0.19266 0.018316 0.27516 0.054734 0.082289 0.036525 0.15313 0.086518 0.2122 0.15009 0.058963 0.063677 0.10486 0.13888 0.13758 0.22562 0.032613 0.08695 0.04892 0.18155 0.04892 0.28391s-0.016307 0.19696-0.04892 0.2838zm0.018574-2.3042v1.1758c-0.077754-0.099232-0.17408-0.17875-0.28909-0.23844s-0.2527-0.089643-0.41274-0.089643c-0.15702 0-0.30324 0.029199-0.43844 0.08738-0.13531 0.058074-0.25335 0.13921-0.35443 0.24307-0.10108 0.10397-0.18045 0.22766-0.2379 0.37107-0.057559 0.14352-0.086285 0.3005-0.086285 0.47116s0.028726 0.32765 0.086285 0.47106c0.057451 0.14352 0.13682 0.26731 0.2379 0.37118s0.21911 0.18489 0.35443 0.24307c0.1352 0.058182 0.28142 0.087273 0.43844 0.087273 0.16004 0 0.29773-0.029414 0.41274-0.08835 0.11501-0.058936 0.21134-0.13813 0.28909-0.23725v0.26753h0.48747v-3.1349h-0.48747z" fill="#1D1D1B"/>
<path d="m17.564 19.526c0.062095-0.062815 0.13596-0.11162 0.22149-0.14653 0.085529-0.035017 0.17797-0.052471 0.27754-0.052471 0.10939 0 0.21112 0.017455 0.30518 0.052471 0.091036 0.033616 0.16976 0.080808 0.23661 0.1405l0.23466-0.38928c-0.088013-0.070034-0.18704-0.12757-0.2973-0.17239-0.14698-0.05969-0.30669-0.089643-0.47916-0.089643-0.17268 0-0.3324 0.029953-0.47926 0.089643-0.14698 0.05969-0.27365 0.1419-0.38013 0.24673-0.10637 0.10462-0.19006 0.22831-0.25065 0.37096-0.060691 0.14276-0.091036 0.29791-0.091036 0.46535 0 0.16754 0.030345 0.32259 0.091036 0.46535 0.060583 0.14276 0.14428 0.26634 0.25065 0.37107 0.10648 0.10473 0.23315 0.18694 0.38013 0.24663 0.14687 0.05969 0.30659 0.089535 0.47926 0.089535 0.17246 0 0.33218-0.029845 0.47916-0.089535 0.11026-0.044822 0.20929-0.10225 0.2973-0.17239l-0.23466-0.38939c-0.066846 0.059906-0.14557 0.10688-0.23661 0.14071-0.09406 0.034801-0.19579 0.052256-0.30518 0.052256-0.099568 0-0.19201-0.017455-0.27754-0.052256-0.085529-0.034909-0.15939-0.083825-0.22149-0.14675-0.062203-0.062707-0.11123-0.13791-0.14698-0.22551-0.035745-0.087704-0.053564-0.18424-0.053564-0.28972s0.017818-0.20202 0.053564-0.28962c0.035745-0.087704 0.084773-0.16291 0.14698-0.22572" fill="#1D1D1B"/>
<g transform="translate(26.674 20.745)">
<mask id="f" fill="white">
<use xlink:href="#c"/>
</mask>
<path d="m0.49039 0.46971v0.081222h0.09093c0.018877 0 0.033149-0.0030784 0.043278-0.0087615 0.010129-0.0061568 0.014963-0.016576 0.014963-0.031257 0-0.014208-0.0048343-0.024627-0.014963-0.031257-0.010129-0.0063936-0.024401-0.0099455-0.043278-0.0099455h-0.09093zm0.093002-0.10798c0.059162 0 0.10405 0.013734 0.13467 0.040729 0.030617 0.026995 0.04581 0.062988 0.04581 0.10845 0 0.03552-0.01082 0.064883-0.032689 0.088326-0.022099 0.023443-0.053867 0.038835-0.095764 0.046176l0.13398 0.15913h-0.1448l-0.11994-0.15463h-0.014273v0.15463h-0.12086v-0.44281h0.21386zm-0.028085 0.583c0.048343 0 0.093692-0.0094719 0.13628-0.028416 0.042587-0.018944 0.07965-0.044755 0.11073-0.077196 0.031538-0.032678 0.056169-0.070803 0.074355-0.11461 0.017956-0.043808 0.026934-0.090931 0.026934-0.14137 0-0.049491-0.0089779-0.096614-0.026934-0.14066-0.018186-0.044281-0.042818-0.082406-0.074355-0.11461-0.031077-0.032205-0.06814-0.057779-0.11073-0.076723s-0.087937-0.028416-0.13628-0.028416c-0.049724 0-0.095994 0.0094719-0.13881 0.028416-0.043048 0.018944-0.080341 0.044518-0.11211 0.076723-0.031538 0.032205-0.05663 0.070329-0.074586 0.11461-0.017956 0.044045-0.026934 0.091167-0.026934 0.14066 0 0.050438 0.0089779 0.097561 0.026934 0.14137 0.017956 0.043808 0.043048 0.081932 0.074586 0.11461 0.031768 0.032441 0.069061 0.058252 0.11211 0.077196 0.042818 0.018944 0.089088 0.028416 0.13881 0.028416zm0-0.861c0.069291 0 0.13398 0.013261 0.19475 0.039545 0.060543 0.026285 0.11326 0.062041 0.15815 0.10727 0.04535 0.045465 0.080801 0.098035 0.10658 0.15842 0.026243 0.06062 0.038904 0.12503 0.038904 0.19417 0 0.068435-0.012661 0.13284-0.038904 0.1937-0.025783 0.060857-0.061234 0.1139-0.10658 0.1596-0.04489 0.045465-0.097606 0.081459-0.15815 0.10774-0.060773 0.026285-0.12546 0.039545-0.19475 0.039545-0.070442 0-0.13674-0.013261-0.19774-0.039545-0.061464-0.026285-0.11441-0.062278-0.15976-0.10774-0.04489-0.045702-0.08011-0.098745-0.10566-0.1596-0.025783-0.060857-0.038444-0.12527-0.038444-0.1937 0-0.069145 0.012661-0.13355 0.038444-0.19417 0.025552-0.060384 0.060773-0.11295 0.10566-0.15842 0.04535-0.045229 0.098297-0.080985 0.15976-0.10727 0.061004-0.026285 0.1273-0.039545 0.19774-0.039545z" fill="#1D1D1B" mask="url(#f)"/>
</g>
<g transform="translate(0 .058505)">
<mask id="e" fill="white">
<use xlink:href="#b"/>
</mask>
<path d="m10.445 8.4494c0-2.6702 1.2503-5.0478 3.197-6.5864-1.4354-1.1344-3.2488-1.8138-5.2223-1.8138-4.6499 0-8.4194 3.7609-8.4194 8.4002 0 4.6394 3.7695 8.4003 8.4194 8.4003 1.9735 0 3.7869-0.67933 5.2223-1.8139-1.9466-1.5386-3.197-3.9161-3.197-6.5864" fill="#E30E17" mask="url(#e)"/>
</g>
<path d="m10.445 8.5079c0 2.6703 1.2503 5.0478 3.197 6.5864 1.9468-1.5386 3.1971-3.9161 3.1971-6.5864 0-2.6702-1.2503-5.0478-3.1971-6.5864-1.9466 1.5386-3.197 3.9162-3.197 6.5864" fill="#EA600A"/>
<path d="m27.508 13.738v-0.69405l-0.10074 0.59883h-0.11152l-0.10074-0.59711v0.69233h-0.10505v-1h0.15065l0.11121 0.64043 0.1106-0.64043h0.15065v1h-0.10505zm-0.75277 0v-0.78446h-0.14218v-0.21554h0.3894v0.21554h-0.14218v0.78446h-0.10505z" fill="#F59F00"/>
<g transform="translate(13.607 .058505)">
<mask id="d" fill="white">
<use xlink:href="#a"/>
</mask>
<path d="m5.2573 0.049228c-1.9735 0-3.7869 0.67933-5.2224 1.8138 1.9468 1.5386 3.1971 3.9162 3.1971 6.5864 0 2.6703-1.2503 5.0477-3.1971 6.5864 1.4355 1.1345 3.2489 1.8139 5.2224 1.8139 4.6499 0 8.4194-3.761 8.4194-8.4003 0-4.6392-3.7695-8.4002-8.4194-8.4002" fill="#F59F00" mask="url(#d)"/>
</g>
</g>
</g>
</g>
</g>
</svg>
