<?xml version="1.0" encoding="UTF-8"?>
<svg width="28px" height="22px" viewBox="0 0 28 22" version="1.1" xmlns="http://www.w3.org/2000/svg" xmlns:xlink="http://www.w3.org/1999/xlink">
		<!-- Generator: Sketch 52.6 (67491) - http://www.bohemiancoding.com/sketch -->
	<title>Bitmap</title>
	<desc>Created with Sketch.</desc>
	<defs>
		<polygon id="path-1" points="0.0536930849 0.0837279472 0.522805637 0.0837279472 0.522805637 0.538720546 0.0536930849 0.538720546"></polygon>
		<polygon id="path-3" points="0 0.0492390579 13.6417261 0.0492390579 13.6417261 16.8496379 0 16.8496379"></polygon>
		<polygon id="path-5" points="0.034902665 0.0492390579 13.6767475 0.0492390579 13.6767475 16.8496595 0.034902665 16.8496595"></polygon>
	</defs>
	<g id="Page-1" stroke="none" stroke-width="1" fill="none" fill-rule="evenodd">
		<g id="Display-payment-types" transform="translate(-773.000000, -323.000000)">
			<g id="Bitmap" transform="translate(772.000000, 321.000000)">
				<g id="Group-34" transform="translate(0.999574, 2.000000)">
					<path d="M4.67990526,19.1163585 C4.60161185,19.0380285 4.50873966,18.9771531 4.4011807,18.9337322 C4.29362174,18.8903114 4.17591164,18.8685471 4.0479424,18.8685471 C3.9802321,18.8685471 3.90993001,18.874473 3.83692815,18.8860016 C3.76403428,18.8977457 3.69254429,18.9182171 3.62256617,18.947739 C3.55258806,18.9771531 3.48606565,19.0178804 3.42278297,19.069813 C3.35960829,19.1218535 3.3047489,19.1873619 3.25809682,19.266446 C3.18282715,19.1423248 3.08088373,19.0450319 2.95226654,18.9744595 C2.82364936,18.9038871 2.67656572,18.8685471 2.51101565,18.8685471 C2.45540032,18.8685471 2.39784116,18.873611 2.33833817,18.883739 C2.27894316,18.8938669 2.21987213,18.9113215 2.16123306,18.9361026 C2.102486,18.9609915 2.04643871,18.9946077 1.9930912,19.0372743 C1.93963569,19.079941 1.89114777,19.133813 1.84751944,19.1989982 L1.84751944,18.9267289 L1.37808292,18.9267289 L1.37808292,21.155739 L1.85194707,21.155739 L1.85194707,19.9202373 C1.85194707,19.825638 1.8670658,19.7414898 1.89719526,19.6677929 C1.92721674,19.5942036 1.96749735,19.5324663 2.01792911,19.4827962 C2.06825288,19.4331262 2.12732391,19.3956312 2.19503422,19.3699881 C2.26274452,19.344345 2.33499045,19.3316312 2.41177199,19.3316312 C2.57116659,19.3316312 2.69503217,19.3820555 2.78304477,19.4827962 C2.87105737,19.5836447 2.91500967,19.7279141 2.91500967,19.9156043 L2.91500967,21.155739 L3.38898182,21.155739 L3.38898182,19.9202373 C3.38898182,19.825638 3.40399255,19.7414898 3.43412202,19.6677929 C3.46425149,19.5942036 3.50442411,19.5324663 3.55485587,19.4827962 C3.60528763,19.4331262 3.66435866,19.3956312 3.73206897,19.3699881 C3.79977927,19.344345 3.8720252,19.3316312 3.94869875,19.3316312 C4.10820134,19.3316312 4.23195893,19.3820555 4.31997153,19.4827962 C4.40798413,19.5836447 4.45193643,19.7279141 4.45193643,19.9156043 L4.45193643,21.155739 L4.92590858,21.155739 L4.92590858,19.7550656 C4.92590858,19.624803 4.90452637,19.5053147 4.86165398,19.3968164 C4.81878158,19.2882104 4.75819868,19.1947962 4.67990526,19.1163585" id="Fill-1" fill="#1D1D1B"></path>
					<path d="M7.16068345,20.3250104 C7.12807019,20.4119599 7.08217405,20.4871653 7.02310302,20.5507343 C6.96403199,20.614411 6.89329794,20.6642966 6.81090086,20.7008218 C6.72850379,20.7372393 6.63671151,20.7554481 6.53574,20.7554481 C6.43001689,20.7554481 6.33552484,20.7364851 6.25237183,20.6985592 C6.16921882,20.6605255 6.09880874,20.6093471 6.04135758,20.5449161 C5.98390641,20.4805929 5.93952214,20.4049565 5.90842075,20.3181147 C5.87731937,20.231273 5.86176868,20.1389363 5.86176868,20.0412124 C5.86176868,19.9434885 5.87731937,19.8512595 5.90842075,19.76431 C5.93952214,19.6774683 5.98390641,19.6018319 6.04135758,19.5375087 C6.09880874,19.4731854 6.16921882,19.4218992 6.25237183,19.3839733 C6.33552484,19.3459397 6.43001689,19.3268689 6.53574,19.3268689 C6.63671151,19.3268689 6.72850379,19.3451854 6.81090086,19.381603 C6.89329794,19.4181282 6.96403199,19.4681215 7.02310302,19.5316905 C7.08217405,19.5953673 7.12807019,19.6705727 7.16068345,19.7573067 C7.1934047,19.8442562 7.20971133,19.9388555 7.20971133,20.0412124 C7.20971133,20.1435693 7.1934047,20.2381686 7.16068345,20.3250104 Z M7.17936588,19.1966063 C7.10161242,19.097374 7.00528452,19.0178588 6.8901662,18.9581686 C6.77515587,18.8984784 6.63757544,18.8685255 6.47742491,18.8685255 C6.32040611,18.8685255 6.1742944,18.8977242 6.03908977,18.955906 C5.90377715,19.01398 5.78563508,19.0951114 5.68455558,19.1989767 C5.58358407,19.3029498 5.50421075,19.42664 5.44665159,19.5700474 C5.38920042,19.7135626 5.36047483,19.8705457 5.36047483,20.0412124 C5.36047483,20.2118791 5.38920042,20.3688622 5.44665159,20.5122696 C5.50421075,20.6557848 5.58358407,20.7795828 5.68455558,20.8834481 C5.78563508,20.9873134 5.90377715,21.068337 6.03908977,21.1265188 C6.1742944,21.1847006 6.32040611,21.2137915 6.47742491,21.2137915 C6.63757544,21.2137915 6.77515587,21.1843774 6.8901662,21.1254414 C7.00528452,21.0665053 7.10161242,20.9873134 7.17936588,20.8881888 L7.17936588,21.1557175 L7.6667289,21.1557175 L7.6667289,18.9267073 L7.17936588,18.9267073 L7.17936588,19.1966063 Z" id="Fill-3" fill="#1D1D1B"></path>
					<path d="M9.9070761,20.0377646 C9.77025161,19.9315289 9.57975563,19.8605255 9.33569615,19.8247545 L9.10491956,19.7899531 C9.05351588,19.7821955 9.00535193,19.7733605 8.96021173,19.7631248 C8.91517951,19.7531046 8.87630278,19.7395289 8.84368952,19.7223976 C8.81107627,19.705374 8.78494247,19.6837174 8.76561209,19.6573201 C8.74617373,19.6310306 8.73645454,19.5983841 8.73645454,19.559704 C8.73645454,19.480512 8.77327945,19.416512 8.84725323,19.3675962 C8.92101102,19.3187881 9.0247903,19.294438 9.15848305,19.294438 C9.22846117,19.294438 9.29725138,19.3005794 9.3648537,19.31297 C9.43245601,19.3254683 9.49660262,19.3408757 9.55729352,19.3595154 C9.61787642,19.3781551 9.67305978,19.3986265 9.7228436,19.421145 C9.77251942,19.4436636 9.81463588,19.4651046 9.84876101,19.485145 L10.0585874,19.1059935 C9.94206516,19.0314346 9.8059966,18.9736838 9.65059767,18.9325255 C9.49509075,18.891475 9.32954067,18.8708959 9.15383944,18.8708959 C9.01075148,18.8708959 8.88256626,18.8875962 8.7690678,18.9209969 C8.65556934,18.9542898 8.55880948,19.0015895 8.47868022,19.0628959 C8.39865895,19.1242023 8.33721212,19.1989767 8.29444771,19.2873269 C8.25168331,19.3757848 8.2304091,19.4750171 8.2304091,19.5852393 C8.2304091,19.765172 8.29444771,19.9105188 8.42274092,20.0214952 C8.55103413,20.1323639 8.73947829,20.2048757 8.98828937,20.2390306 L9.22144176,20.2691989 C9.35513452,20.2878387 9.45308228,20.3177915 9.51528505,20.3587343 C9.57748782,20.3998925 9.6085892,20.4522562 9.6085892,20.5158252 C9.6085892,20.5996501 9.5658248,20.6659127 9.48029599,20.7147208 C9.39476718,20.7635289 9.26809384,20.7880946 9.10016796,20.7880946 C9.00848367,20.7880946 8.92651856,20.7818454 8.85416464,20.7694548 C8.78191872,20.7570642 8.71582828,20.7403639 8.65600131,20.7194616 C8.59606635,20.6985592 8.54250285,20.6744245 8.49509484,20.647273 C8.44757883,20.6201215 8.40373452,20.5911383 8.36334592,20.560108 L8.13710494,20.9252528 C8.21788215,20.985805 8.30265502,21.0347208 8.39131557,21.0720003 C8.47986812,21.1090643 8.5669088,21.1381552 8.65243761,21.1591653 C8.73796642,21.1801754 8.81874362,21.1939666 8.89498521,21.2010777 C8.97111881,21.2079733 9.03796519,21.2115289 9.09552435,21.2115289 C9.25567488,21.2115289 9.39908682,21.1937511 9.52576017,21.1579801 C9.65254151,21.1223168 9.75891256,21.0723235 9.8453053,21.0078925 C9.93159004,20.9435693 9.99757249,20.8667478 10.0434686,20.7775356 C10.0892568,20.6884313 10.1122588,20.5902764 10.1122588,20.4832865 C10.1122588,20.2924716 10.0439006,20.1438925 9.9070761,20.0377646" id="Fill-5" fill="#1D1D1B"></path>
					<path d="M13.1073546,19.850473 C13.1197735,19.7697727 13.1415877,19.6956447 13.1726891,19.6281969 C13.2037905,19.5608568 13.2438551,19.5025673 13.292775,19.4537592 C13.3418029,19.4048434 13.40001,19.3673484 13.4676123,19.3409511 C13.5353226,19.3145538 13.6126441,19.3013013 13.6996848,19.3013013 C13.8550837,19.3013013 13.9818651,19.3494629 14.0798128,19.4455706 C14.1777606,19.5417861 14.2398554,19.6767895 14.2663131,19.850473 L13.1073546,19.850473 Z M14.470416,19.1931262 C14.3778678,19.0900151 14.2667451,19.0101767 14.13694,18.9535033 C14.0071349,18.8968299 13.8644789,18.8686009 13.70908,18.8686009 C13.5441779,18.8686009 13.3938545,18.8968299 13.2578939,18.9535033 C13.1217174,19.0101767 13.0047632,19.0900151 12.9068155,19.1931262 C12.8088677,19.2962373 12.7327341,19.4200353 12.6783067,19.5643046 C12.6238792,19.708574 12.5966655,19.8674966 12.5966655,20.0412878 C12.5966655,20.2179881 12.6246352,20.3785269 12.6806825,20.5227962 C12.7366218,20.6670656 12.8150232,20.7904326 12.9161027,20.8927895 C13.0172902,20.9951464 13.1377,21.0742306 13.2776563,21.130042 C13.4176125,21.1859612 13.5714996,21.2137592 13.7394254,21.2137592 C13.9087552,21.2137592 14.0700936,21.1905942 14.2232248,21.1440488 C14.3762479,21.0975033 14.5213877,21.0160488 14.6581042,20.8996851 L14.4156646,20.5530723 C14.3223604,20.6275235 14.2193371,20.6853821 14.1065946,20.7264326 C13.993852,20.7675908 13.8815415,20.7880622 13.7696629,20.7880622 C13.6902896,20.7880622 13.614156,20.7772878 13.5411541,20.7554158 C13.4680443,20.7337592 13.4020618,20.700143 13.3428828,20.654244 C13.2838118,20.6085605 13.23338,20.5499477 13.1912635,20.4786211 C13.1493631,20.4072945 13.1205295,20.321207 13.1050868,20.2203585 L14.7560519,20.2203585 C14.7591837,20.1924528 14.7614515,20.1629309 14.7630714,20.1319006 C14.7645832,20.1008703 14.7654472,20.0699477 14.7654472,20.0389174 C14.7654472,19.8652339 14.7393134,19.7065269 14.6872617,19.5631195 C14.6351021,19.4196043 14.5629642,19.2962373 14.470416,19.1931262 Z" id="Fill-7" fill="#1D1D1B"></path>
					<path d="M20.9269986,20.3250104 C20.8942774,20.4119599 20.8483812,20.4871653 20.7894182,20.5507343 C20.7302392,20.614411 20.6595051,20.6642966 20.577108,20.7008218 C20.494711,20.7372393 20.4030267,20.7554481 20.3019472,20.7554481 C20.1962241,20.7554481 20.101732,20.7364851 20.018687,20.6985592 C19.935426,20.6605255 19.8651239,20.6093471 19.8075648,20.5449161 C19.7501136,20.4805929 19.7057293,20.4049565 19.6746279,20.3181147 C19.6435266,20.231273 19.6280839,20.1389363 19.6280839,20.0412124 C19.6280839,19.9434885 19.6435266,19.8512595 19.6746279,19.76431 C19.7057293,19.6774683 19.7501136,19.6018319 19.8075648,19.5375087 C19.8651239,19.4731854 19.935426,19.4218992 20.018687,19.3839733 C20.101732,19.3459397 20.1962241,19.3268689 20.3019472,19.3268689 C20.4030267,19.3268689 20.494711,19.3451854 20.577108,19.381603 C20.6595051,19.4181282 20.7302392,19.4681215 20.7894182,19.5316905 C20.8483812,19.5953673 20.8942774,19.6705727 20.9269986,19.7573067 C20.9596119,19.8442562 20.9759185,19.9388555 20.9759185,20.0412124 C20.9759185,20.1435693 20.9596119,20.2381686 20.9269986,20.3250104 Z M20.9455731,19.1966063 C20.8678196,19.097374 20.7714917,19.0178588 20.6563734,18.9581686 C20.541471,18.8984784 20.4037826,18.8685255 20.2437401,18.8685255 C20.0866133,18.8685255 19.9405016,18.8977242 19.805297,18.955906 C19.6699843,19.01398 19.5519503,19.0951114 19.4507628,19.1989767 C19.3497913,19.3029498 19.2704179,19.42664 19.2129668,19.5700474 C19.1554076,19.7135626 19.126682,19.8705457 19.126682,20.0412124 C19.126682,20.2118791 19.1554076,20.3688622 19.2129668,20.5122696 C19.2704179,20.6557848 19.3497913,20.7795828 19.4507628,20.8834481 C19.5519503,20.9873134 19.6699843,21.068337 19.805297,21.1265188 C19.9405016,21.1847006 20.0866133,21.2137915 20.2437401,21.2137915 C20.4037826,21.2137915 20.541471,21.1843774 20.6563734,21.1254414 C20.7714917,21.0665053 20.8678196,20.9873134 20.9455731,20.8881888 L20.9455731,21.1557175 L21.4330441,21.1557175 L21.4330441,18.9267073 L20.9455731,18.9267073 L20.9455731,19.1966063 Z" id="Fill-9" fill="#1D1D1B"></path>
					<path d="M11.9969164,20.7112622 C11.918407,20.7406764 11.8410855,20.7554373 11.7648439,20.7554373 C11.7150601,20.7554373 11.66884,20.7477875 11.6260756,20.7321646 C11.5833111,20.7167572 11.5460543,20.6922993 11.514197,20.6590063 C11.4823396,20.6256057 11.4569618,20.5826158 11.4383873,20.5298211 C11.4197049,20.4770265 11.4104177,20.4134575 11.4104177,20.3390063 L11.4104177,19.3687706 L12.1931359,19.3687706 L12.1931359,18.9268043 L11.4104177,18.9268043 L11.4104177,18.2521107 L10.9206789,18.2521107 L10.9206789,18.9268043 L10.4753243,18.9268043 L10.4753243,19.3687706 L10.9206789,19.3687706 L10.9206789,20.3483801 C10.9206789,20.6445686 10.990981,20.8628582 11.1316931,21.0032488 C11.2724053,21.1437471 11.4694887,21.2137808 11.7228354,21.2137808 C11.8643035,21.2137808 11.9914088,21.1921242 12.1041513,21.1487033 C12.1786651,21.1200434 12.2477793,21.0871814 12.3124658,21.0509794 L12.1458358,20.6438144 C12.0986438,20.6689188 12.049184,20.6915451 11.9969164,20.7112622" id="Fill-11" fill="#1D1D1B"></path>
					<path d="M16.3970712,18.8685686 C16.2602467,18.8685686 16.136705,18.8933497 16.0262303,18.9430198 C15.9158636,18.9926898 15.8234234,19.112178 15.7488017,19.2192757 L15.7488017,18.9267504 L15.3062549,18.9267504 L15.3062549,21.1557605 L15.7534453,21.1557605 L15.7534453,19.9295248 C15.7534453,19.8350333 15.7667282,19.7504541 15.7930779,19.6758952 C15.8195357,19.6015518 15.8560366,19.538737 15.9027967,19.4874508 C15.9493408,19.4363801 16.0052801,19.3974844 16.0707226,19.3711949 C16.1359491,19.3447976 16.2073311,19.3316528 16.2851926,19.3316528 C16.3442636,19.3316528 16.4079782,19.3385484 16.4763365,19.3525551 C16.5113255,19.3596662 16.5438308,19.3685013 16.5743922,19.378737 L16.7184521,18.9134979 C16.6793594,18.9012151 16.6397267,18.8906561 16.5987982,18.8837605 C16.5388632,18.8736326 16.4716929,18.8685686 16.3970712,18.8685686" id="Fill-13" fill="#1D1D1B"></path>
					<path d="M23.1722378,18.8685686 C23.0354133,18.8685686 22.9118717,18.8933497 22.801397,18.9430198 C22.6910303,18.9926898 22.5985901,19.112178 22.5239683,19.2192757 L22.5239683,18.9267504 L22.0814216,18.9267504 L22.0814216,21.1557605 L22.5286119,21.1557605 L22.5286119,19.9295248 C22.5286119,19.8350333 22.5417868,19.7504541 22.5682446,19.6758952 C22.5945944,19.6015518 22.6312033,19.538737 22.6778554,19.4874508 C22.7245075,19.4363801 22.7804468,19.3974844 22.8457813,19.3711949 C22.9110078,19.3447976 22.9824978,19.3316528 23.0602512,19.3316528 C23.1194303,19.3316528 23.1831449,19.3385484 23.2515032,19.3525551 C23.2863842,19.3596662 23.3188895,19.3685013 23.3494509,19.378737 L23.4936188,18.9134979 C23.4544181,18.9012151 23.4147854,18.8906561 23.3739649,18.8837605 C23.3140299,18.8736326 23.2467516,18.8685686 23.1722378,18.8685686" id="Fill-15" fill="#1D1D1B"></path>
					<path d="M25.4300256,20.3250104 C25.3973043,20.4119599 25.3514082,20.4871653 25.2924451,20.5507343 C25.2333741,20.614411 25.1625321,20.6642966 25.080243,20.7008218 C24.9977379,20.7372393 24.9060536,20.7554481 24.8050821,20.7554481 C24.699251,20.7554481 24.604867,20.7364851 24.5217139,20.6985592 C24.4384529,20.6605255 24.3681509,20.6093471 24.3105917,20.5449161 C24.2531405,20.4805929 24.2087563,20.4049565 24.1777629,20.3181147 C24.1465535,20.231273 24.1311108,20.1389363 24.1311108,20.0412124 C24.1311108,19.9434885 24.1465535,19.8512595 24.1777629,19.76431 C24.2087563,19.6774683 24.2531405,19.6018319 24.3105917,19.5375087 C24.3681509,19.4731854 24.4384529,19.4218992 24.5217139,19.3839733 C24.604867,19.3459397 24.699251,19.3268689 24.8050821,19.3268689 C24.9060536,19.3268689 24.9977379,19.3451854 25.080243,19.381603 C25.1625321,19.4181282 25.2333741,19.4681215 25.2924451,19.5316905 C25.3514082,19.5953673 25.3973043,19.6705727 25.4300256,19.7573067 C25.4626388,19.8442562 25.4789454,19.9388555 25.4789454,20.0412124 C25.4789454,20.1435693 25.4626388,20.2381686 25.4300256,20.3250104 Z M25.4486,18.0207949 L25.4486,19.1966063 C25.3708465,19.097374 25.2745186,19.0178588 25.1595083,18.9581686 C25.044498,18.8984784 24.9068096,18.8685255 24.746767,18.8685255 C24.5897482,18.8685255 24.4435285,18.8977242 24.3083239,18.955906 C24.1730113,19.01398 24.0549772,19.0951114 23.9538977,19.1989767 C23.8528182,19.3029498 23.7734449,19.42664 23.7159937,19.5700474 C23.6584345,19.7135626 23.629709,19.8705457 23.629709,20.0412124 C23.629709,20.2118791 23.6584345,20.3688622 23.7159937,20.5122696 C23.7734449,20.6557848 23.8528182,20.7795828 23.9538977,20.8834481 C24.0549772,20.9873134 24.1730113,21.068337 24.3083239,21.1265188 C24.4435285,21.1847006 24.5897482,21.2137915 24.746767,21.2137915 C24.9068096,21.2137915 25.044498,21.1843774 25.1595083,21.1254414 C25.2745186,21.0665053 25.3708465,20.9873134 25.4486,20.8881888 L25.4486,21.1557175 L25.936071,21.1557175 L25.936071,18.0207949 L25.4486,18.0207949 Z" id="Fill-17" fill="#1D1D1B"></path>
					<path d="M17.5635675,19.5258723 C17.6256622,19.4630575 17.699528,19.4142494 17.7850568,19.3793403 C17.8705856,19.3443235 17.9630259,19.3268689 18.0625935,19.3268689 C18.1719883,19.3268689 18.2737157,19.3443235 18.3677758,19.3793403 C18.4588122,19.4129565 18.5375376,19.4601484 18.6043839,19.5198386 L18.8390482,19.1305592 C18.7510356,19.0605255 18.6520079,19.0029902 18.5417492,18.9581686 C18.3947736,18.8984784 18.235055,18.8685255 18.0625935,18.8685255 C17.889916,18.8685255 17.7301974,18.8984784 17.5833298,18.9581686 C17.4363542,19.0178588 17.3096808,19.1000676 17.2032018,19.2049026 C17.0968307,19.3095221 17.0131377,19.4332124 16.9525548,19.5758656 C16.8918639,19.7186265 16.8615185,19.873778 16.8615185,20.0412124 C16.8615185,20.2087545 16.8918639,20.3637982 16.9525548,20.5065592 C17.0131377,20.6493201 17.0968307,20.7729026 17.2032018,20.8776299 C17.3096808,20.9823572 17.4363542,21.0645659 17.5833298,21.1242562 C17.7301974,21.1839464 17.889916,21.2137915 18.0625935,21.2137915 C18.235055,21.2137915 18.3947736,21.1839464 18.5417492,21.1242562 C18.6520079,21.0794346 18.7510356,21.022007 18.8390482,20.9518656 L18.6043839,20.5624784 C18.5375376,20.6223841 18.4588122,20.6693605 18.3677758,20.7031922 C18.2737157,20.7379935 18.1719883,20.7554481 18.0625935,20.7554481 C17.9630259,20.7554481 17.8705856,20.7379935 17.7850568,20.7031922 C17.699528,20.6682831 17.6256622,20.6193673 17.5635675,20.5564447 C17.5013647,20.4937376 17.4523368,20.4185323 17.4165918,20.3309363 C17.3808468,20.2432326 17.3630283,20.1466939 17.3630283,20.0412124 C17.3630283,19.9357309 17.3808468,19.8391922 17.4165918,19.7515962 C17.4523368,19.6638925 17.5013647,19.5886871 17.5635675,19.5258723" id="Fill-19" fill="#1D1D1B"></path>
					<g id="Group-23" transform="translate(26.673757, 20.745374)">
						<mask id="mask-2" fill="white">
							<use xlink:href="#path-1"></use>
						</mask>
						<g id="Clip-22"></g>
						<path d="M0.490387376,0.469709477 L0.490387376,0.550931357 L0.581317394,0.550931357 C0.600194006,0.550931357 0.614466566,0.547852977 0.624595479,0.542169813 C0.634724392,0.536013053 0.639558647,0.525593919 0.639558647,0.510912413 C0.639558647,0.496704504 0.634724392,0.486285371 0.624595479,0.479655013 C0.614466566,0.473261454 0.600194006,0.469709477 0.581317394,0.469709477 L0.490387376,0.469709477 Z M0.583389217,0.361729368 C0.64255128,0.361729368 0.687440783,0.37546368 0.718057726,0.402458707 C0.748674669,0.429453735 0.763868039,0.465447104 0.763868039,0.510912413 C0.763868039,0.546432186 0.753048518,0.575795198 0.731179273,0.599238248 C0.709079825,0.622681298 0.677311869,0.638073199 0.635415,0.645413952 L0.769392901,0.804542534 L0.624595479,0.804542534 L0.504659936,0.649913124 L0.490387376,0.649913124 L0.490387376,0.804542534 L0.369531022,0.804542534 L0.369531022,0.361729368 L0.583389217,0.361729368 Z M0.555304503,0.944727237 C0.603647044,0.944727237 0.648996952,0.935255297 0.691584429,0.916311419 C0.734171906,0.89736754 0.771234521,0.871556505 0.802311869,0.839115113 C0.833849623,0.806436922 0.858481299,0.768312366 0.876667302,0.724504646 C0.894623103,0.680696927 0.903601004,0.633574028 0.903601004,0.583135951 C0.903601004,0.533645068 0.894623103,0.486522169 0.876667302,0.442477651 C0.858481299,0.398196335 0.833849623,0.360071779 0.802311869,0.327867185 C0.771234521,0.295662591 0.734171906,0.270088355 0.691584429,0.251144476 C0.648996952,0.232200597 0.603647044,0.222728658 0.555304503,0.222728658 C0.505580746,0.222728658 0.459310028,0.232200597 0.416492348,0.251144476 C0.373444466,0.270088355 0.336151648,0.295662591 0.304383693,0.327867185 C0.272845939,0.360071779 0.247753858,0.398196335 0.229798057,0.442477651 C0.211842256,0.486522169 0.202864356,0.533645068 0.202864356,0.583135951 C0.202864356,0.633574028 0.211842256,0.680696927 0.229798057,0.724504646 C0.247753858,0.768312366 0.272845939,0.806436922 0.304383693,0.839115113 C0.336151648,0.871556505 0.373444466,0.89736754 0.416492348,0.916311419 C0.459310028,0.935255297 0.505580746,0.944727237 0.555304503,0.944727237 Z M0.555304503,0.0837279472 C0.624595479,0.0837279472 0.689282403,0.0969886624 0.750055884,0.123273294 C0.810599162,0.149557926 0.863315553,0.185314497 0.908205055,0.230543008 C0.953554963,0.276008317 0.98900616,0.32857758 1.01478885,0.388961194 C1.04103194,0.449581606 1.05369308,0.513990794 1.05369308,0.583135951 C1.05369308,0.651570713 1.04103194,0.715979901 1.01478885,0.776837111 C0.98900616,0.837694322 0.953554963,0.890737182 0.908205055,0.93643929 C0.863315553,0.981904599 0.810599162,1.01789797 0.750055884,1.0441826 C0.689282403,1.07046723 0.624595479,1.08372795 0.555304503,1.08372795 C0.484862514,1.08372795 0.418564171,1.07046723 0.357560488,1.0441826 C0.2960964,1.01789797 0.243149807,0.981904599 0.197799899,0.93643929 C0.152910396,0.890737182 0.117689402,0.837694322 0.0921369155,0.776837111 C0.0663542267,0.715979901 0.0536930849,0.651570713 0.0536930849,0.583135951 C0.0536930849,0.513990794 0.0663542267,0.449581606 0.0921369155,0.388961194 C0.117689402,0.32857758 0.152910396,0.276008317 0.197799899,0.230543008 C0.243149807,0.185314497 0.2960964,0.149557926 0.357560488,0.123273294 C0.418564171,0.0969886624 0.484862514,0.0837279472 0.555304503,0.0837279472 Z" id="Fill-21" fill="#1D1D1B" mask="url(#mask-2)"></path>
					</g>
					<g id="Group-26" transform="translate(0.000000, 0.058505)">
						<mask id="mask-4" fill="white">
							<use xlink:href="#path-3"></use>
						</mask>
						<g id="Clip-25"></g>
						<path d="M10.4447629,8.44936846 C10.4447629,5.7791462 11.6950817,3.40155695 13.6417261,1.86297107 C12.2063108,0.728533343 10.3929272,0.0492067347 8.4193932,0.0492067347 C3.76952022,0.0492067347 -1.07990919e-05,3.81012261 -1.07990919e-05,8.44936846 C-1.07990919e-05,13.0887221 3.76952022,16.8496379 8.4193932,16.8496379 C10.3929272,16.8496379 12.2063108,16.1703113 13.6417261,15.0357659 C11.6950817,13.49718 10.4447629,11.1196985 10.4447629,8.44936846" id="Fill-24" fill="#E30E17" mask="url(#mask-4)"></path>
					</g>
					<path d="M10.4447629,8.50787351 C10.4447629,11.1782035 11.6950817,13.555685 13.6417261,15.0942709 C15.5884783,13.555685 16.8387972,11.1782035 16.8387972,8.50787351 C16.8387972,5.83765126 15.5884783,3.460062 13.6417261,1.92147612 C11.6950817,3.460062 10.4447629,5.83765126 10.4447629,8.50787351" id="Fill-27" fill="#EA600A"></path>
					<path d="M27.5079813,13.738112 L27.5079813,13.044059 L27.4072419,13.6428902 L27.2957201,13.6428902 L27.1949807,13.0457778 L27.1949807,13.738112 L27.0899283,13.738112 L27.0899283,12.738112 L27.2405753,12.738112 L27.3517891,13.3785382 L27.4623867,12.738112 L27.6130337,12.738112 L27.6130337,13.738112 L27.5079813,13.738112 Z M26.7552087,13.738112 L26.7552087,12.9536499 L26.6130337,12.9536499 L26.6130337,12.738112 L27.002436,12.738112 L27.002436,12.9536499 L26.860261,12.9536499 L26.860261,13.738112 L26.7552087,13.738112 Z" id="Fill-29" fill="#F59F00"></path>
					<g id="Group-33" transform="translate(13.606856, 0.058505)">
						<mask id="mask-6" fill="white">
							<use xlink:href="#path-5"></use>
						</mask>
						<g id="Clip-32"></g>
						<path d="M5.2573435,0.0492282835 C3.28380946,0.0492282835 1.47042595,0.728554892 0.034902665,1.86299262 C1.98165496,3.4015785 3.23197382,5.77916775 3.23197382,8.44939001 C3.23197382,11.11972 1.98165496,13.4970938 0.034902665,15.0357874 C1.47042595,16.1703329 3.28380946,16.8496595 5.2573435,16.8496595 C9.90721649,16.8496595 13.6767475,13.0886359 13.6767475,8.44939001 C13.6767475,3.81014416 9.90721649,0.0492282835 5.2573435,0.0492282835" id="Fill-31" fill="#F59F00" mask="url(#mask-6)"></path>
					</g>
				</g>
			</g>
		</g>
	</g>
</svg>