<svg xmlns="http://www.w3.org/2000/svg" width="40" height="14" viewBox="0 0 40 14"><style>.a{fill:#FFF;}.b{fill:#016FD0;}</style><title>  American_Express_logo_(2018)</title><desc>  Created with Sketch.</desc><g fill="none"><g transform="translate(-135 -392)translate(135 392)"><path d="M8 14L8 8 14.6 8 15.3 8.9 16 8 40 8 40 13.6C40 13.6 39.4 14 38.6 14L25.4 14 24.6 13.1 24.6 14 22 14 22 12.4C22 12.4 21.6 12.6 20.8 12.6L19.9 12.6 19.9 14 16 14 15.3 13.1 14.6 14 8 14Z" class="a"/><path d="M0 3.3L1.5 0 4.1 0 4.9 1.9 4.9 0 8.1 0 8.6 1.4 9.1 0 23.4 0 23.4 0.7C23.4 0.7 24.2 0 25.4 0L30.1 0 30.9 1.9 30.9 0 33.6 0 34.3 1.1 34.3 0 37 0 37 6 34.3 6 33.6 4.9 33.6 6 29.7 6 29.3 5.1 28.2 5.1 27.8 6 25.2 6C24.1 6 23.4 5.3 23.4 5.3L23.4 6 19.4 6 18.6 5.1 18.6 6 3.7 6 3.3 5.1 2.2 5.1 1.8 6 0 6 0 3.3Z" class="a"/><path d="M2.2 1L0 6 1.4 6 1.8 5 4.2 5 4.6 6 6 6 3.8 1 2.2 1ZM3 2.2L3.7 3.9 2.3 3.9 3 2.2 3 2.2Z" class="b"/><polygon points="6 6 6 1 7.9 1 9 4.2 10.1 1 12 1 12 6 10.8 6 10.8 2.3 9.5 6 8.5 6 7.2 2.3 7.2 6" class="b"/><polygon points="12 6 12 1 16 1 16 2.1 13.2 2.1 13.2 3 15.9 3 15.9 4 13.2 4 13.2 4.9 16 4.9 16 6" class="b"/><path d="M17 1L17 6 18 6 18 4.2 18.5 4.2 19.7 6 21 6 19.6 4.2C20.2 4.1 20.8 3.5 20.8 2.6 20.8 1.6 20.1 1 19.3 1L17 1 17 1ZM18 2.1L19.2 2.1C19.5 2.1 19.7 2.4 19.7 2.6 19.7 3 19.5 3.2 19.2 3.2L18 3.2 18 2.1 18 2.1Z" class="b"/><polygon points="23 6 22 6 22 1 23 1" class="b"/><path d="M25.5 6L25.2 6C23.8 6 23 4.9 23 3.5 23 2.1 23.8 1 25.6 1L27 1 27 2.2 25.5 2.2C24.8 2.2 24.3 2.7 24.3 3.5 24.3 4.5 24.9 4.9 25.7 4.9L26 4.9 25.5 6Z" class="b"/><path d="M28.2 1L26 6 27.4 6 27.8 5 30.2 5 30.6 6 32 6 29.8 1 28.2 1ZM29 2.2L29.7 3.9 28.3 3.9 29 2.2Z" class="b"/><polygon points="31 6 31 1 32.6 1 34.7 4.1 34.7 1 36 1 36 6 34.4 6 32.3 2.8 32.3 6" class="b"/><polygon points="8 14 8 9 12 9 12 10.1 9.2 10.1 9.2 11 11.9 11 11.9 12 9.2 12 9.2 12.9 12 12.9 12 14" class="b"/><polygon points="27 14 27 9 31 9 31 10.1 28.2 10.1 28.2 11 30.9 11 30.9 12 28.2 12 28.2 12.9 31 12.9 31 14" class="b"/><polygon points="12 14 13.8 11.5 12 9 13.4 9 14.5 10.6 15.6 9 17 9 15.2 11.5 17 14 15.6 14 14.5 12.5 13.5 14" class="b"/><path d="M18 9L18 14 19.1 14 19.1 12.4 20.3 12.4C21.3 12.4 22 11.8 22 10.7 22 9.7 21.4 9 20.4 9L18 9 18 9ZM19.1 10.1L20.3 10.1C20.7 10.1 20.9 10.4 20.9 10.7 20.9 11 20.7 11.3 20.3 11.3L19.1 11.3 19.1 10.1Z" class="b"/><path d="M23 9L23 14 24 14 24 12.2 24.5 12.2 25.7 14 27 14 25.6 12.2C26.2 12.1 26.8 11.5 26.8 10.6 26.8 9.6 26.1 9 25.3 9L23 9 23 9ZM24 10.1L25.2 10.1C25.5 10.1 25.7 10.4 25.7 10.6 25.7 11 25.5 11.2 25.2 11.2L24 11.2 24 10.1 24 10.1Z" class="b"/><path d="M31.1 14L31.1 12.9 33.4 12.9C33.7 12.9 33.9 12.7 33.9 12.5 33.9 12.3 33.7 12.1 33.4 12.1L32.4 12.1C31.5 12.1 31 11.5 31 10.6 31 9.8 31.5 9 32.8 9L34.9 9 34.5 10.1 32.6 10.1C32.2 10.1 32.1 10.3 32.1 10.5 32.1 10.7 32.2 11 32.5 11L33.6 11C34.6 11 35 11.6 35 12.4 35 13.3 34.5 14 33.5 14L31.1 14Z" class="b"/><path d="M36.1 14L36.1 12.9 38.4 12.9C38.7 12.9 38.9 12.7 38.9 12.5 38.9 12.3 38.7 12.1 38.4 12.1L37.4 12.1C36.5 12.1 36 11.5 36 10.6 36 9.8 36.5 9 37.8 9L39.9 9 39.5 10.1 37.6 10.1C37.2 10.1 37.1 10.3 37.1 10.5 37.1 10.7 37.2 11 37.5 11L38.6 11C39.6 11 40 11.6 40 12.4 40 13.3 39.5 14 38.5 14L36.1 14Z" class="b"/></g></g></svg>